<svg xmlns="http://www.w3.org/2000/svg" xmlns:xlink="http://www.w3.org/1999/xlink" version="1.1" x="0px" y="0px" viewBox="0 0 20 20" xml:space="preserve"><g transform="translate(-330 -800)"><g xmlns="http://www.w3.org/2000/svg" xmlns:xlink="http://www.w3.org/1999/xlink"><polygon points="348,804 344,804 344,800   "></polygon><polygon points="347,805 347,819 333,819 333,801 343,801 343,800 332,800 332,820 348,820 348,805   "></polygon><path d="M343,810v-2c0-1.657-1.344-3-3-3c-1.656,0-3,1.343-3,3v2h-1v6h8v-6H343z M338,808c0-1.102,0.896-2,2-2    c1.103,0,2,0.898,2,2v2h-4V808z"></path></g></g></svg>