<svg xmlns="http://www.w3.org/2000/svg" xmlns:xlink="http://www.w3.org/1999/xlink" version="1.1" x="0px" y="0px" viewBox="0 0 59.261 73" enable-background="new 0 0 59.261 73" xml:space="preserve"><polyline fill="none"  stroke-width="3" stroke-linejoin="round" points="6.167,7.167 1.5,7.167 1.5,71.5   49.833,71.5 49.833,66.625 "></polyline><polyline fill="none"  stroke-width="3" stroke-linejoin="round" points="11.531,4.292 6.167,4.292 6.167,66.625   52.833,66.625 52.833,61.744 "></polyline><polyline fill="none"  stroke-width="3" stroke-linejoin="round" points="44.417,1.5 44.417,15.375 57.761,15.375   "></polyline><polygon fill="none"  stroke-width="3" stroke-linejoin="round" points="57.761,15.375 57.761,61.744   11.531,61.744 11.531,1.5 44.417,1.5 57.761,14.845 "></polygon><g><g><path d="M34.417,23.812c-6.686,0-12.105,5.42-12.105,12.105c0,6.685,5.419,12.104,12.105,12.104    c6.685,0,12.104-5.42,12.104-12.104C46.522,29.231,41.102,23.812,34.417,23.812z M35.948,41.828c0,0.829-0.671,1.502-1.5,1.502    s-1.5-0.673-1.5-1.502v-8.487c0-0.827,0.671-1.5,1.5-1.5s1.5,0.673,1.5,1.5V41.828z M34.459,31.084    c-1.015,0-1.834-0.821-1.834-1.833c0-1.012,0.819-1.833,1.834-1.833c1.013,0,1.832,0.821,1.832,1.833    C36.292,30.263,35.472,31.084,34.459,31.084z"></path></g></g></svg>