<svg xmlns="http://www.w3.org/2000/svg" xmlns:xlink="http://www.w3.org/1999/xlink" version="1.1" x="0px" y="0px" viewBox="0 0 100 100" enable-background="new 0 0 100 100" xml:space="preserve"><path d="M62.7,22.2v2.8C75.8,30,85.2,42.7,85.2,57.6c0,19.1-15.6,34.7-34.7,34.7c-19.2,0-34.7-15.6-34.7-34.7  c0-14.7,9.2-27.3,22.2-32.4v-2.9c-14.5,5.2-24.9,19-24.9,35.2C13.1,78.2,29.9,95,50.5,95s37.4-16.8,37.4-37.4  C87.9,41.2,77.4,27.3,62.7,22.2z"></path><path d="M59.6,58.9"></path><path d="M61.4,48.2c0-6-4.8-10.8-10.8-10.8c-5.9,0-10.7,4.8-10.8,10.6c0,0.3-0.1,2.8-0.1,2.8s-0.1,0.6-0.3,0.8l-0.5,0.6  c-0.2,0.2-0.3,0.5-0.3,0.9c0,0,0,0.6,0.1,1.3l0,0c0,0,0.4,2.8,1.5,3.7c0,0,1.8,1.1,2.1,1.5c0.3,0.4,0.6,1.1,0.6,2.3  c0,0,0.4,4.4-1.6,6.2c-0.5,0.4-1,0.7-1.3,0.8l-11,5.2l0,0l-2.1,1c-0.5,0.3-0.9,0.8-0.9,1.5c0,0,0,0,0,0.1c0,0,0,0,0,0c0,0,0,0,0,0.1  c0,0.1,0,0.2,0,0.2c0,0.1,0,0.2,0.1,0.3c0.1,0.1,0.2,0.4,0.4,0.7c0,0,0,0,0,0c0.5,0.6,1.7,2,4.1,3.9c0,0,0,0,0.1,0  c5.3,4.2,12,6.8,19.3,6.8c0.2,0,0.8,0,1,0c7.3,0,14-2.5,19.3-6.8c0,0,0,0,0.1,0c2.4-1.9,3.6-3.3,4.1-3.9c0,0,0,0,0,0  c0.2-0.3,0.3-0.5,0.4-0.7c0-0.1,0.1-0.2,0.1-0.3c0-0.1,0-0.2,0-0.2c0,0,0,0,0-0.1c0,0,0,0,0,0c0,0,0,0,0-0.1c0-0.6-0.4-1.2-0.9-1.5  l-2.1-1l0,0l-11-5.2c-0.3-0.1-0.8-0.4-1.3-0.8c-2-1.8-1.6-6.2-1.6-6.2c0-1.1,0.3-1.8,0.6-2.3c0.3-0.4,2.1-1.5,2.1-1.5  c1.1-0.9,1.5-3.7,1.5-3.7l0,0c0.1-0.8,0.1-1.3,0.1-1.3c0-0.4-0.1-0.8-0.3-0.9l-0.5-0.6c-0.2-0.2-0.3-0.8-0.3-0.8"></path><path d="M57.5,30.3c1.4,0,2.6-1.1,2.6-2.6v-10c0-1.4-1.1-2.5-2.4-2.5v-2.9c0-4-3.3-7.3-7.3-7.3c-4,0-7.3,3.3-7.3,7.3v2.9  c-1.3,0.1-2.4,1.2-2.4,2.5v10c0,1.4,1.1,2.6,2.6,2.6H57.5z M52.4,24.3c0,1.1-0.9,2.1-2,2.1c-1.1,0-2-0.9-2-2.1v-3.2  c0-1.1,0.9-2.1,2-2.1c1.1,0,2,0.9,2,2.1V24.3z M53.2,12.3v2.8h-2.8h-2.8v-2.8h0c0-0.6,0-1.2,0.2-1.7c0-0.1,0-0.1,0.1-0.2  c0-0.1,0-0.2,0.1-0.2c0.1-0.2,0.1-0.3,0.2-0.4c0,0,0,0,0-0.1c0.5-0.8,1.3-1.4,2.3-1.4c1,0.1,1.8,0.6,2.3,1.4c0,0,0,0,0,0.1  c0.1,0.1,0.1,0.3,0.2,0.4c0,0.1,0,0.2,0.1,0.2c0,0.1,0,0.1,0.1,0.2C53.1,11.1,53.2,11.7,53.2,12.3L53.2,12.3z"></path></svg>