<svg xmlns="http://www.w3.org/2000/svg" xmlns:xlink="http://www.w3.org/1999/xlink" version="1.1" x="0px" y="0px" viewBox="0 0 100 100" enable-background="new 0 0 100 100" xml:space="preserve"><g><g><path fill="#000000" d="M48.098,91.5c-17.112,0-32.193-10.236-38.555-26.119c-2.656-2.372-4.169-5.813-4.169-9.523    c0-1.89,0.406-3.765,1.179-5.457c-0.011-0.153-0.018-0.307-0.018-0.464c0-5.997,1.286-11.825,3.828-17.333    c-0.229-1.005-0.345-2.005-0.345-2.984c0-8.059,7.062-14.628,15.789-14.742c6.677-4.257,14.371-6.503,22.291-6.503    c6.128,0,12.05,1.33,17.623,3.954c1.186-0.759,2.558-1.167,3.971-1.167c4.098,0,7.43,3.333,7.43,7.43    c0,0.506-0.053,1.009-0.158,1.507c4.341,4.203,7.753,9.345,9.924,14.962c4.869,3.53,7.648,8.584,7.648,13.949    c0,4.974-2.456,9.776-6.761,13.259c-1.68,5.41-4.421,10.35-8.158,14.699c-0.539,6.51-5.598,11.515-11.784,11.515    c-1.061,0-2.119-0.156-3.155-0.464C59.394,90.329,53.82,91.5,48.098,91.5z M26.075,18.594c-6.824,0-12.341,4.947-12.341,11.026    c0,0.865,0.129,1.765,0.383,2.676c0.12,0.434,0.08,0.896-0.116,1.302c-2.489,5.183-3.75,10.68-3.75,16.34    c0,0.109,0.009,0.216,0.016,0.323c0.011,0.16,0.022,0.318,0.025,0.479c0.005,0.305-0.063,0.606-0.201,0.877    c-0.655,1.291-1.001,2.758-1.001,4.242c0,2.767,1.165,5.311,3.193,6.978c0.247,0.202,0.437,0.465,0.553,0.763    c5.698,14.693,19.539,24.185,35.262,24.185c5.428,0,10.714-1.16,15.711-3.448c0.448-0.205,0.958-0.224,1.422-0.052    c0.854,0.319,1.731,0.481,2.603,0.481c4.386,0,7.947-3.78,8.11-8.606c0.015-0.432,0.178-0.845,0.464-1.169    c3.726-4.208,6.411-9.035,7.976-14.348c0.111-0.379,0.341-0.713,0.655-0.952c3.728-2.842,5.781-6.636,5.781-10.683    c0-4.296-2.376-8.389-6.52-11.226c-0.316-0.218-0.559-0.528-0.691-0.888c-2.088-5.643-5.549-10.782-10.008-14.859    c-0.571-0.522-0.758-1.344-0.47-2.062c0.181-0.454,0.274-0.92,0.274-1.382c0-2.049-1.667-3.715-3.715-3.715    c-0.916,0-1.805,0.352-2.5,0.991c-0.571,0.522-1.406,0.637-2.093,0.291c-5.353-2.7-11.073-4.069-17.001-4.069    c-7.387,0-14.559,2.147-20.741,6.21c-0.312,0.205-0.615,0.315-1.054,0.305C26.274,18.604,26.111,18.592,26.075,18.594z"></path></g><g><path fill="#000000" d="M45.641,22.509c-0.978,2.091-2.679,1.311-4.77,0.333c-2.091-0.978-3.78-1.783-2.803-3.874    s4.252-4.676,6.343-3.699C46.503,16.247,46.619,20.418,45.641,22.509z"></path></g><g><path fill="#000000" d="M15.757,55.453c1.58,1.683,0.224,2.974-1.459,4.553s-3.057,2.85-4.637,1.167s-2.767-5.683-1.083-7.262    S14.178,53.77,15.757,55.453z"></path></g><g><path fill="#000000" d="M80.634,60.555c-0.875,2.136-2.612,1.439-4.748,0.564c-2.136-0.875-3.862-1.597-2.987-3.733    c0.875-2.136,4.02-4.877,6.156-4.002C81.191,54.259,81.509,58.419,80.634,60.555z"></path></g><g><path fill="#000000" d="M93.405,51.499c-0.875,2.136-2.612,1.439-4.748,0.564c-2.136-0.875-3.862-1.597-2.987-3.733    c0.875-2.136,4.02-4.877,6.156-4.002C93.962,45.204,94.28,49.364,93.405,51.499z"></path></g><g><path fill="#000000" d="M16.752,28.576c-2.308,0-2.322-1.871-2.322-4.179s0.014-4.179,2.322-4.179s6.037,1.871,6.037,4.179    S19.061,28.576,16.752,28.576z"></path></g><g><path fill="#000000" d="M55.877,75.13c0-2.308,1.871-2.322,4.179-2.322s4.179,0.014,4.179,2.322s-1.871,6.037-4.179,6.037    S55.877,77.439,55.877,75.13z"></path></g><g><path fill="#000000" d="M65.647,13.648c1.978-2.292,3.848-0.701,6.139,1.277c2.292,1.978,4.138,3.596,2.159,5.888    c-1.978,2.292-7.032,4.39-9.324,2.411C62.33,21.245,63.668,15.94,65.647,13.648z"></path></g><g><path fill="#000000" d="M68.167,77.131c1.632-1.632,2.965-0.319,4.597,1.313c1.632,1.632,2.946,2.965,1.313,4.597    c-1.632,1.632-5.592,2.946-7.224,1.313C65.221,82.723,66.534,78.763,68.167,77.131z"></path></g><g><path fill="#000000" d="M33.106,74.344c1.632-1.632,2.965-0.319,4.597,1.313c1.632,1.632,2.946,2.965,1.313,4.597    c-1.632,1.632-5.592,2.946-7.224,1.313C30.16,79.936,31.473,75.977,33.106,74.344z"></path></g><g><path fill="#000000" d="M54.328,57.329c0-2.308,1.871-2.322,4.179-2.322c2.308,0,4.179,0.014,4.179,2.322    s-1.871,6.037-4.179,6.037C56.199,63.366,54.328,59.637,54.328,57.329z"></path></g><g><g><path fill="#000000" d="M31.085,68.287c-1.155,1.998-2.782,1.073-4.78-0.082s-3.611-2.104-2.456-4.102     c1.155-1.998,4.642-4.289,6.64-3.134C32.487,62.125,32.24,66.289,31.085,68.287z"></path></g></g><g><g><path fill="#000000" d="M41.146,36.301c0.346-2.282,2.198-2.016,4.48-1.67c2.282,0.346,4.13,0.639,3.785,2.922     s-2.754,5.689-5.036,5.343S40.801,38.584,41.146,36.301z"></path></g></g><g><g><path fill="#000000" d="M70.098,42.488c-1.858,1.369-2.979-0.129-4.349-1.987c-1.369-1.858-2.468-3.373-0.61-4.742     c1.858-1.369,5.97-2.075,7.339-0.217S71.956,41.118,70.098,42.488z"></path></g></g><g><g><path fill="#000000" d="M19.129,50.471c-2.307-0.059-2.273-1.93-2.214-4.238s0.121-4.178,2.428-4.119s5.987,2.025,5.928,4.333     C25.212,48.755,21.436,50.53,19.129,50.471z"></path></g></g></g></svg>