<svg xmlns="http://www.w3.org/2000/svg" xmlns:xlink="http://www.w3.org/1999/xlink" version="1.1" x="0px" y="0px" viewBox="0 0 100 100" style="enable-background:new 0 0 100 100;" xml:space="preserve"><path d="M50,48.5c-9.1,0-16.5-7.5-16.5-16.7c0-9.2,7.4-16.7,16.5-16.7s16.5,7.5,16.5,16.7C66.5,41.1,59.1,48.5,50,48.5z M50,19.2  c-6.9,0-12.5,5.7-12.5,12.7c0,7,5.6,12.7,12.5,12.7s12.5-5.7,12.5-12.7C62.5,24.9,56.9,19.2,50,19.2z M61.9,82.8c0-1.1-0.9-2-2-2  H27.1V66.9c0-5.5,4.5-10,10-10h25.8c3.5,0,6.7,1.8,8.5,4.7c1,1.6,1.5,3.4,1.5,5.3v0.9c0,1.1,0.9,2,2,2s2-0.9,2-2v-0.9  c0-2.6-0.7-5.2-2.1-7.4c-2.6-4.2-7-6.6-11.9-6.6H37.1c-7.7,0-14,6.3-14,14v15.9c0,1.1,0.9,2,2,2h34.8C61,84.8,61.9,83.9,61.9,82.8z   M71.8,79.3c1.1,0,2-1,2-2.1c0-1.2-0.9-2.1-2-2.1s-2,1-2,2.1C69.8,78.4,70.6,79.3,71.8,79.3z M73.7,89.5v-7.1c0-1.2-0.9-2.1-2-2.1  s-2,1-2,2.1v7.1c0,1.2,0.9,2.1,2,2.1S73.7,90.7,73.7,89.5z"></path></svg>